<?xml version="1.0" encoding="utf-8"?>
<!-- Generator: Adobe Illustrator 22.1.0, SVG Export Plug-In . SVG Version: 6.00 Build 0)  -->
<svg version="1.1" id="Layer_1" xmlns="http://www.w3.org/2000/svg" xmlns:xlink="http://www.w3.org/1999/xlink" x="0px" y="0px"
	 viewBox="0 0 1368 163" style="enable-background:new 0 0 1368 163;" xml:space="preserve">
<style type="text/css">
	.st0{fill:#003349;}
	.st1{display:none;}
	.st2{display:inline;fill:#F2F2F2;}
	.st3{display:inline;fill:none;stroke:#9A9A9A;stroke-width:0.5;stroke-miterlimit:10;}
	.st4{display:inline;fill:none;stroke:#E6E6E6;stroke-width:0.5;stroke-miterlimit:10;}
	.st5{display:inline;fill:none;stroke:#818181;stroke-width:0.5;stroke-miterlimit:10;}
	.st6{display:inline;fill:none;stroke:#818181;stroke-miterlimit:10;}
</style>
<g id="Layer_1_1_">
	<g>
		<path class="st0" d="M247.3,50.2v37.6c0,4.3-1,8.1-2.9,11.3c-1.9,3.2-4.7,5.7-8.3,7.4c-3.6,1.7-7.9,2.6-12.9,2.6
			c-7.5,0-13.3-1.9-17.4-5.7c-4.1-3.8-6.2-9.1-6.2-15.7V50.2h12.3v35.6c0,4.5,0.9,7.8,2.7,9.9s4.8,3.1,8.9,3.1c4,0,7-1.1,8.8-3.2
			s2.7-5.4,2.7-9.9V50.2H247.3z"/>
		<path class="st0" d="M260.1,52.4c0-4,2.2-5.9,6.6-5.9s6.6,2,6.6,5.9c0,1.9-0.6,3.3-1.7,4.4c-1.1,1-2.8,1.6-5,1.6
			C262.3,58.3,260.1,56.3,260.1,52.4z M272.8,108.3h-12.1V63.9h12.1V108.3z"/>
		<path class="st0" d="M310.5,108.3h-12.3V60.4h-15.8V50.2h43.9v10.3h-15.8L310.5,108.3L310.5,108.3z"/>
		<path class="st0" d="M402.5,108.3h-7.7L363,59.5h-0.3c0.4,5.7,0.6,11,0.6,15.8v33.1h-6.2V50.2h7.6l31.7,48.6h0.3
			c-0.1-0.7-0.2-3-0.4-6.9c-0.2-3.9-0.3-6.7-0.2-8.3V50.2h6.3v58.1H402.5z"/>
		<path class="st0" d="M455.1,86.5c0,7.1-1.8,12.7-5.4,16.6c-3.6,4-8.5,6-14.8,6c-3.9,0-7.4-0.9-10.4-2.7c-3-1.8-5.4-4.5-7-7.9
			s-2.5-7.4-2.5-12c0-7.1,1.8-12.6,5.3-16.6s8.5-5.9,14.8-5.9c6.1,0,10.9,2,14.5,6.1S455.1,79.6,455.1,86.5z M421.9,86.5
			c0,5.6,1.1,9.8,3.3,12.7c2.2,2.9,5.5,4.4,9.8,4.4s7.6-1.5,9.8-4.4c2.2-2.9,3.4-7.2,3.4-12.7s-1.1-9.8-3.4-12.6
			c-2.2-2.9-5.5-4.3-9.9-4.3c-4.3,0-7.6,1.4-9.8,4.3S421.9,80.9,421.9,86.5z"/>
		<path class="st0" d="M486.6,63.9c1.9,0,3.7,0.2,5.2,0.5l-0.9,6.1c-1.8-0.4-3.4-0.6-4.8-0.6c-3.5,0-6.5,1.4-9,4.3
			s-3.8,6.4-3.8,10.7v23.4h-6.6V64.7h5.4l0.8,8.1h0.3c1.6-2.8,3.6-5,5.8-6.6C481.3,64.7,483.9,63.9,486.6,63.9z"/>
		<path class="st0" d="M535.6,64.7v4.2l-8.1,1c0.7,0.9,1.4,2.1,2,3.6s0.9,3.2,0.9,5.1c0,4.3-1.5,7.7-4.4,10.2s-6.9,3.8-12,3.8
			c-1.3,0-2.5-0.1-3.7-0.3c-2.8,1.5-4.2,3.4-4.2,5.6c0,1.2,0.5,2.1,1.5,2.6c1,0.6,2.7,0.9,5.1,0.9h7.7c4.7,0,8.3,1,10.9,3
			c2.5,2,3.8,4.9,3.8,8.7c0,4.8-1.9,8.5-5.8,11c-3.9,2.5-9.5,3.8-16.9,3.8c-5.7,0-10.1-1.1-13.2-3.2c-3.1-2.1-4.6-5.1-4.6-9
			c0-2.7,0.8-4.9,2.5-6.9c1.7-1.9,4.1-3.2,7.2-3.9c-1.1-0.5-2-1.3-2.8-2.3c-0.8-1.1-1.1-2.3-1.1-3.7c0-1.6,0.4-3,1.3-4.2
			c0.8-1.2,2.2-2.3,4-3.5c-2.3-0.9-4.1-2.5-5.5-4.7s-2.1-4.8-2.1-7.6c0-4.8,1.4-8.5,4.3-11c2.9-2.6,6.9-3.9,12.2-3.9
			c2.3,0,4.3,0.3,6.2,0.8h14.8V64.7z M500.9,115.6c0,2.4,1,4.1,3,5.4c2,1.2,4.8,1.8,8.6,1.8c5.5,0,9.6-0.8,12.3-2.5s4-3.9,4-6.7
			c0-2.4-0.7-4-2.2-4.9s-4.2-1.4-8.2-1.4h-7.9c-3,0-5.3,0.7-7,2.1S500.9,113,500.9,115.6z M504.4,78.7c0,3,0.9,5.4,2.6,6.9
			c1.7,1.6,4.1,2.3,7.2,2.3c6.4,0,9.7-3.1,9.7-9.4c0-6.5-3.3-9.8-9.8-9.8c-3.1,0-5.5,0.8-7.2,2.5C505.3,72.9,504.4,75.4,504.4,78.7z
			"/>
		<path class="st0" d="M563,109.1c-6.4,0-11.5-2-15.3-5.9s-5.6-9.4-5.6-16.3c0-7,1.7-12.6,5.2-16.7s8.1-6.2,13.9-6.2
			c5.5,0,9.8,1.8,13,5.4s4.8,8.3,4.8,14.2v4.2h-30c0.1,5.1,1.4,9,3.9,11.7s5.9,4,10.4,4c4.7,0,9.3-1,13.9-2.9v5.9
			c-2.3,1-4.5,1.7-6.6,2.2S565.9,109.1,563,109.1z M561.2,69.5c-3.5,0-6.3,1.1-8.4,3.4c-2.1,2.3-3.3,5.4-3.7,9.5h22.8
			c0-4.2-0.9-7.4-2.8-9.6C567.3,70.6,564.6,69.5,561.2,69.5z"/>
		<path class="st0" d="M618.4,96.4c0,4.1-1.5,7.2-4.5,9.4c-3,2.2-7.3,3.3-12.7,3.3c-5.8,0-10.3-0.9-13.5-2.7v-6.1
			c2.1,1.1,4.3,1.9,6.7,2.5s4.7,0.9,6.9,0.9c3.4,0,6.1-0.6,8-1.7s2.8-2.8,2.8-5c0-1.7-0.7-3.1-2.2-4.4c-1.5-1.2-4.3-2.6-8.6-4.3
			c-4.1-1.5-6.9-2.8-8.7-4c-1.7-1.1-3-2.4-3.8-3.8s-1.3-3.1-1.3-5.1c0-3.6,1.4-6.4,4.3-8.4c2.9-2.1,6.9-3.1,11.9-3.1
			c4.7,0,9.3,1,13.8,2.9l-2.3,5.4c-4.4-1.8-8.3-2.7-11.9-2.7c-3.1,0-5.5,0.5-7.1,1.5s-2.4,2.3-2.4,4.1c0,1.2,0.3,2.2,0.9,3
			c0.6,0.8,1.6,1.6,2.9,2.3c1.3,0.7,3.9,1.8,7.6,3.2c5.2,1.9,8.7,3.8,10.5,5.7C617.5,91.1,618.4,93.5,618.4,96.4z"/>
		<path class="st0" d="M677.1,108.3l-1.3-6.2h-0.3c-2.2,2.7-4.3,4.6-6.5,5.5c-2.2,1-4.9,1.5-8.1,1.5c-4.3,0-7.7-1.1-10.2-3.3
			c-2.5-2.2-3.7-5.4-3.7-9.5c0-8.8,7-13.4,21.1-13.8l7.4-0.2v-2.7c0-3.4-0.7-5.9-2.2-7.6c-1.5-1.6-3.8-2.4-7.1-2.4
			c-3.6,0-7.7,1.1-12.3,3.3l-2-5.1c2.1-1.2,4.5-2.1,7.1-2.7c2.6-0.7,5.1-1,7.7-1c5.2,0,9,1.2,11.6,3.5c2.5,2.3,3.8,6,3.8,11.1v29.8
			h-5V108.3z M662.2,103.7c4.1,0,7.3-1.1,9.7-3.4c2.3-2.3,3.5-5.4,3.5-9.5v-3.9l-6.6,0.3c-5.2,0.2-9,1-11.4,2.4
			c-2.3,1.4-3.5,3.7-3.5,6.7c0,2.4,0.7,4.2,2.2,5.4C657.6,103,659.6,103.7,662.2,103.7z"/>
		<path class="st0" d="M715.5,63.9c1.9,0,3.7,0.2,5.2,0.5l-0.9,6.1c-1.8-0.4-3.4-0.6-4.8-0.6c-3.5,0-6.5,1.4-9,4.3
			s-3.8,6.4-3.8,10.7v23.4h-6.6V64.7h5.4l0.8,8.1h0.3c1.6-2.8,3.6-5,5.8-6.6C710.2,64.7,712.8,63.9,715.5,63.9z"/>
		<path class="st0" d="M735.4,86c1.1-1.6,2.9-3.7,5.2-6.4l14.1-14.9h7.8l-17.7,18.6l18.9,25h-8l-15.4-20.6l-5,4.3v16.3h-6.5V46.4
			h6.5v32.8c0,1.5-0.1,3.7-0.3,6.8H735.4z"/>
		<path class="st0" d="M785.7,103.7c1.2,0,2.3-0.1,3.4-0.3c1.1-0.2,1.9-0.4,2.6-0.5v5.1c-0.7,0.3-1.8,0.6-3.2,0.9
			c-1.4,0.2-2.6,0.3-3.8,0.3c-8.4,0-12.6-4.4-12.6-13.3v-26h-6.2v-3.2l6.2-2.7l2.8-9.3h3.8v10h12.6v5.1h-12.6v25.7
			c0,2.6,0.6,4.6,1.9,6S783.5,103.7,785.7,103.7z"/>
		<path class="st0" d="M799.8,52.9c0-1.5,0.4-2.6,1.1-3.3c0.7-0.7,1.7-1.1,2.8-1.1s2,0.4,2.7,1.1c0.8,0.7,1.2,1.8,1.2,3.3
			s-0.4,2.6-1.2,3.3c-0.8,0.7-1.7,1.1-2.7,1.1c-1.1,0-2-0.4-2.8-1.1C800.2,55.5,799.8,54.4,799.8,52.9z M807,108.3h-6.6V64.7h6.6
			V108.3z"/>
		<path class="st0" d="M849.1,96.4c0,4.1-1.5,7.2-4.5,9.4c-3,2.2-7.3,3.3-12.7,3.3c-5.8,0-10.3-0.9-13.5-2.7v-6.1
			c2.1,1.1,4.3,1.9,6.7,2.5s4.7,0.9,6.9,0.9c3.4,0,6.1-0.6,8-1.7s2.8-2.8,2.8-5c0-1.7-0.7-3.1-2.2-4.4c-1.5-1.2-4.3-2.6-8.6-4.3
			c-4.1-1.5-6.9-2.8-8.7-4c-1.7-1.1-3-2.4-3.8-3.8s-1.3-3.1-1.3-5.1c0-3.6,1.4-6.4,4.3-8.4c2.9-2.1,6.9-3.1,11.9-3.1
			c4.7,0,9.3,1,13.8,2.9l-2.3,5.4c-4.4-1.8-8.3-2.7-11.9-2.7c-3.1,0-5.5,0.5-7.1,1.5s-2.4,2.3-2.4,4.1c0,1.2,0.3,2.2,0.9,3
			c0.6,0.8,1.6,1.6,2.9,2.3c1.3,0.7,3.9,1.8,7.6,3.2c5.2,1.9,8.7,3.8,10.5,5.7C848.2,91.1,849.1,93.5,849.1,96.4z"/>
		<path class="st0" d="M866.3,86c1.1-1.6,2.9-3.7,5.2-6.4l14.1-14.9h7.8l-17.7,18.6l18.9,25h-8l-15.3-20.6l-5,4.3v16.3h-6.5V46.4
			h6.5v32.8c0,1.5-0.1,3.7-0.3,6.8H866.3z"/>
		<path class="st0" d="M921,109.1c-6.4,0-11.5-2-15.3-5.9s-5.6-9.4-5.6-16.3c0-7,1.7-12.6,5.2-16.7s8.1-6.2,13.9-6.2
			c5.5,0,9.8,1.8,13,5.4s4.8,8.3,4.8,14.2v4.2h-30c0.1,5.1,1.4,9,3.9,11.7s5.9,4,10.4,4c4.7,0,9.3-1,13.9-2.9v5.9
			c-2.3,1-4.5,1.7-6.6,2.2S923.9,109.1,921,109.1z M919.2,69.5c-3.5,0-6.3,1.1-8.4,3.4c-2.1,2.3-3.3,5.4-3.7,9.5h22.8
			c0-4.2-0.9-7.4-2.8-9.6C925.3,70.6,922.6,69.5,919.2,69.5z"/>
		<path class="st0" d="M975.6,64.7V93c0,3.6,0.8,6.2,2.4,8s4.2,2.6,7.6,2.6c4.6,0,7.9-1.2,10-3.7s3.2-6.6,3.2-12.2v-23h6.6v43.6
			h-5.4l-1-5.8h-0.4c-1.4,2.1-3.2,3.8-5.6,4.9c-2.4,1.1-5.1,1.7-8.2,1.7c-5.3,0-9.3-1.3-11.9-3.8c-2.6-2.5-4-6.5-4-12.1V64.7H975.6z
			"/>
		<path class="st0" d="M1049.3,108.3V80.1c0-3.6-0.8-6.2-2.4-8s-4.2-2.6-7.6-2.6c-4.6,0-7.9,1.2-10,3.7s-3.2,6.5-3.2,12.2v22.9h-6.6
			V64.7h5.4l1.1,6h0.3c1.4-2.1,3.2-3.8,5.7-5c2.4-1.2,5.2-1.8,8.2-1.8c5.2,0,9.2,1.3,11.9,3.8c2.7,2.5,4,6.6,4,12.2v28.4H1049.3z"/>
		<path class="st0" d="M1068.9,52.9c0-1.5,0.4-2.6,1.1-3.3c0.7-0.7,1.7-1.1,2.8-1.1c1.1,0,2,0.4,2.7,1.1c0.8,0.7,1.2,1.8,1.2,3.3
			s-0.4,2.6-1.2,3.3c-0.8,0.7-1.7,1.1-2.7,1.1c-1.1,0-2-0.4-2.8-1.1S1068.9,54.4,1068.9,52.9z M1076,108.3h-6.6V64.7h6.6V108.3z"/>
		<path class="st0" d="M1099.6,108.3L1083,64.7h7.1l9.4,25.9c2.1,6,3.4,10,3.7,11.8h0.3c0.3-1.4,1.2-4.3,2.8-8.7
			c1.6-4.4,5-14,10.4-28.9h7.1l-16.5,43.6h-7.7V108.3z"/>
		<path class="st0" d="M1149.3,109.1c-6.4,0-11.5-2-15.3-5.9c-3.7-3.9-5.6-9.4-5.6-16.3c0-7,1.7-12.6,5.2-16.7s8.1-6.2,13.9-6.2
			c5.5,0,9.8,1.8,13,5.4s4.8,8.3,4.8,14.2v4.2h-30c0.1,5.1,1.4,9,3.9,11.7s5.9,4,10.4,4c4.7,0,9.3-1,13.9-2.9v5.9
			c-2.3,1-4.5,1.7-6.6,2.2S1152.2,109.1,1149.3,109.1z M1147.5,69.5c-3.5,0-6.3,1.1-8.4,3.4s-3.3,5.4-3.7,9.5h22.8
			c0-4.2-0.9-7.4-2.8-9.6C1153.6,70.6,1150.9,69.5,1147.5,69.5z"/>
		<path class="st0" d="M1196.4,63.9c1.9,0,3.7,0.2,5.2,0.5l-0.9,6.1c-1.8-0.4-3.4-0.6-4.8-0.6c-3.5,0-6.5,1.4-9,4.3
			s-3.8,6.4-3.8,10.7v23.4h-6.6V64.7h5.4l0.8,8.1h0.3c1.6-2.8,3.6-5,5.8-6.6C1191.2,64.7,1193.7,63.9,1196.4,63.9z"/>
		<path class="st0" d="M1237.9,96.4c0,4.1-1.5,7.2-4.5,9.4c-3,2.2-7.3,3.3-12.7,3.3c-5.8,0-10.3-0.9-13.5-2.7v-6.1
			c2.1,1.1,4.3,1.9,6.7,2.5c2.4,0.6,4.7,0.9,6.9,0.9c3.4,0,6.1-0.6,8-1.7s2.8-2.8,2.8-5c0-1.7-0.7-3.1-2.2-4.4
			c-1.5-1.2-4.3-2.6-8.6-4.3c-4.1-1.5-6.9-2.8-8.7-4c-1.7-1.1-3-2.4-3.8-3.8s-1.3-3.1-1.3-5.1c0-3.6,1.4-6.4,4.3-8.4
			c2.9-2.1,6.9-3.1,11.9-3.1c4.7,0,9.3,1,13.8,2.9l-2.3,5.4c-4.4-1.8-8.3-2.7-11.9-2.7c-3.1,0-5.5,0.5-7.1,1.5s-2.4,2.3-2.4,4.1
			c0,1.2,0.3,2.2,0.9,3s1.6,1.6,2.9,2.3c1.3,0.7,3.9,1.8,7.6,3.2c5.2,1.9,8.7,3.8,10.5,5.7C1237,91.1,1237.9,93.5,1237.9,96.4z"/>
		<path class="st0" d="M1248.1,52.9c0-1.5,0.4-2.6,1.1-3.3c0.7-0.7,1.7-1.1,2.8-1.1c1.1,0,2,0.4,2.7,1.1c0.8,0.7,1.2,1.8,1.2,3.3
			s-0.4,2.6-1.2,3.3c-0.8,0.7-1.7,1.1-2.7,1.1c-1.1,0-2-0.4-2.8-1.1C1248.5,55.5,1248.1,54.4,1248.1,52.9z M1255.2,108.3h-6.6V64.7
			h6.6V108.3z"/>
		<path class="st0" d="M1283.3,103.7c1.2,0,2.3-0.1,3.4-0.3c1.1-0.2,1.9-0.4,2.6-0.5v5.1c-0.7,0.3-1.8,0.6-3.2,0.9
			c-1.4,0.2-2.6,0.3-3.8,0.3c-8.4,0-12.6-4.4-12.6-13.3v-26h-6.2v-3.2l6.2-2.7l2.8-9.3h3.8v10h12.6v5.1h-12.6v25.7
			c0,2.6,0.6,4.6,1.9,6C1279.4,103,1281.2,103.7,1283.3,103.7z"/>
		<path class="st0" d="M1316.4,109.1c-6.4,0-11.5-2-15.3-5.9c-3.7-3.9-5.6-9.4-5.6-16.3c0-7,1.7-12.6,5.2-16.7s8.1-6.2,13.9-6.2
			c5.5,0,9.8,1.8,13,5.4s4.8,8.3,4.8,14.2v4.2h-30c0.1,5.1,1.4,9,3.9,11.7s5.9,4,10.4,4c4.7,0,9.3-1,13.9-2.9v5.9
			c-2.3,1-4.5,1.7-6.6,2.2S1319.4,109.1,1316.4,109.1z M1314.6,69.5c-3.5,0-6.3,1.1-8.4,3.4s-3.3,5.4-3.7,9.5h22.8
			c0-4.2-0.9-7.4-2.8-9.6C1320.7,70.6,1318.1,69.5,1314.6,69.5z"/>
		<path class="st0" d="M1357.8,103.7c1.2,0,2.3-0.1,3.4-0.3c1.1-0.2,1.9-0.4,2.6-0.5v5.1c-0.7,0.3-1.8,0.6-3.2,0.9
			c-1.4,0.2-2.6,0.3-3.8,0.3c-8.4,0-12.6-4.4-12.6-13.3v-26h-6.2v-3.2l6.2-2.7l2.8-9.3h3.8v10h12.6v5.1h-12.6v25.7
			c0,2.6,0.6,4.6,1.9,6S1355.6,103.7,1357.8,103.7z"/>
	</g>
	<g>
		<g>
			<path class="st0" d="M47.9,147.3c-1.6-0.8-2.3-2.6-1.5-4.3c0.9-1.7,2.7-2.3,4.4-1.4c1.6,0.8,2.3,2.6,1.5,4.4
				C51.4,147.6,49.5,148.1,47.9,147.3"/>
			<path class="st0" d="M64.3,150.2l1.4-7.7l2.7,0.5l-1.3,7.4c-0.4,2.2,0.4,3.4,2.1,3.7s2.8-0.6,3.2-2.8l1.3-7.4l2.7,0.5l-1.4,7.7
				c-0.6,3.5-3.1,5-6.3,4.4C65.5,156,63.7,153.7,64.3,150.2"/>
			<rect x="79.8" y="144.8" class="st0" width="2.7" height="12.7"/>
			<polygon class="st0" points="86,144.5 97,142.6 97.4,144.9 93.3,145.6 95.1,156.1 92.4,156.6 90.6,146.1 86.5,146.8 			"/>
			<path class="st0" d="M113.7,147.3c-1.6,0.8-3.5,0.3-4.3-1.4c-0.9-1.7-0.2-3.6,1.5-4.4c1.6-0.8,3.5-0.3,4.4,1.4
				C116,144.7,115.3,146.5,113.7,147.3"/>
			<path class="st0" d="M107.2,56.8h14.6c-0.8-1.4-1.5-2.5-2.5-3.8h-10.1c-0.6-1.1-1.5-2.7-1.5-2.7h9.5c-1.3-1.6-2.8-3.1-4.3-4.5
				h-11.2l-11.8,7.3l10.2,8.2L107.2,56.8z"/>
			<path class="st0" d="M40.6,71.4c-1,1.2-2.6,3-2.6,4.2c0,0.7,0.5,1.3,1.3,1.3h10.1l1.7,2.8h51.3l2.6-3.8h23
				c-0.2-1.5-0.4-3-0.7-4.5h-12.2c-0.1-0.9-0.3-1.9-0.5-2.7h12c-0.5-1.8-1.1-3.6-1.8-5.3H98.4l-22-17.7H48.9c-1.5,1.4-3,2.9-4.3,4.5
				h9.5c-0.4,0.7-1.1,1.9-1.5,2.7H42.5c-1,1.3-1.7,2.4-2.5,3.8h26.8l5.9,6.5H56C49.9,63.3,45.5,65.8,40.6,71.4 M66.5,67
				c1.8,0,3.3,1.5,3.3,3.3s-1.5,3.3-3.3,3.3s-3.3-1.5-3.3-3.3C63.2,68.4,64.6,67,66.5,67 M59.9,75.7h-7.1l-1.3-2.2h-7.8
				c2.6-3.6,7-6.5,10.7-6.5h5.4L59.9,75.7L59.9,75.7z"/>
			<path class="st0" d="M127.8,87.9c0.2-1.6,0.4-3.2,0.5-4.9H90l-28.2,17.5h-24c0.8,1.7,1.6,3.2,2.6,4.8H51c0.4,1.1,1.3,2.7,1.3,2.7
				H42.2c1.1,1.6,2.2,3,3.5,4.4h11.9l2.4,3.3h44.6l1.3-2.6h9.1c0.7,0,1.2-0.6,1.2-1.2c0-1.1-1.5-3-2.4-4.1c-3.5-4.2-7.7-7.2-14-7.2
				h-9.5l7-6.4h29c0.4-1.3,0.6-2.3,0.9-3.6h-12.1c0.2-1,0.3-1.9,0.4-2.7C115.5,87.9,127.8,87.9,127.8,87.9z M96.1,104h5.4
				c3.4,0,7.4,2.7,9.7,6H104l-1.2,2h-6.7C96.1,112,96.1,104,96.1,104z M92.9,107.3c0,1.8-1.5,3.3-3.3,3.3s-3.3-1.5-3.3-3.3
				s1.5-3.3,3.3-3.3C91.4,104,92.9,105.5,92.9,107.3"/>
			<g>
				<path class="st0" d="M33.2,123.1l1.5,1.5l-1.5,10.5l6-6.3l1.9,1.8l-8.9,9.4l-1.8-1.7l1.5-9.9l-5.6,5.9l-1.9-1.8L33.2,123.1z"/>
				<path class="st0" d="M28.1,115.9c2,3,1,6.7-2.2,8.8c-3.2,2.2-7,1.6-9-1.4s-1.1-6.7,2.2-8.8S26.1,112.9,28.1,115.9z M19,122
					c1.1,1.7,3.3,1.8,5.4,0.4c2.1-1.4,2.8-3.5,1.7-5.2c-1.2-1.7-3.4-1.9-5.5-0.5C18.6,118.2,17.9,120.3,19,122z"/>
				<path class="st0" d="M18,107.8l4.5-1.8l1,2.5l-12.1,4.8l-2-5c-1-2.5-0.3-4.8,2.2-5.7c1.9-0.8,3.6-0.2,4.6,1.3l3.4-5l1.1,2.8
					l-3.3,4.8L18,107.8z M15.9,108.6l-0.9-2.3c-0.5-1.3-1.4-1.6-2.4-1.2s-1.4,1.3-0.9,2.6l0.9,2.3L15.9,108.6z"/>
				<path class="st0" d="M14.8,88.9l-1.9,0.3l0.4,2.2l-2.2,0.4l-0.8-4.6l5.4-0.9c1.5,1,2.3,2.6,2.6,4.3c0.6,3.9-1.7,6.8-5.5,7.4
					c-4,0.7-7.1-1.6-7.7-5.5C4.9,91,5,89.7,5.6,88.7l2.7-0.4c-0.7,1.2-0.9,2.4-0.7,3.9c0.4,2.3,2.3,3.6,4.8,3.2s4-2.1,3.6-4.4
					C15.7,90.1,15.4,89.3,14.8,88.9z"/>
				<path class="st0" d="M4.5,73.3l2.4,0.1l-0.2,6.1l2.8,0.2l0.2-5.6l2.3,0.1l-0.2,5.6l3.1,0.1l0.2-6.2l2.4,0.1l-0.3,8.8l-13-0.5
					L4.5,73.3z"/>
				<path class="st0" d="M14.4,70.2c1.1-0.9,2-2.3,2.3-3.7c0.3-1.3,0.1-2.3-0.9-2.6C15,63.7,14.5,64.2,14,65l-1,1.7
					c-1,1.7-2.3,2.8-4.4,2.3c-2.3-0.5-3.2-2.8-2.6-5.3c0.4-1.5,1-2.7,1.9-3.6l2.6,0.6c-1.1,0.9-1.8,2-2.2,3.5
					c-0.3,1.1-0.1,2.1,0.8,2.3c0.8,0.2,1.2-0.3,1.7-1.1l1.1-1.8c1.2-2,2.6-2.7,4.5-2.2c2.5,0.6,3.3,3,2.7,5.7
					c-0.4,1.7-1.2,3.1-2,3.8L14.4,70.2z"/>
				<path class="st0" d="M15.3,41.2L29,43.4l-1.4,2.4l-3.3-0.6l-2.4,4.2L24,52l-1.4,2.3L14,43.5L15.3,41.2z M20.4,47.6l1.6-2.7
					l-4.5-0.8L20.4,47.6z"/>
				<path class="st0" d="M28.9,36.2l3.6,3.3l-1.8,2l-9.6-8.8l3.6-4c1.8-2,4.1-2.4,6.1-0.6c1.5,1.4,1.7,3.1,0.8,4.8l6,0.9L35.5,36
					l-5.7-0.9L28.9,36.2z M27.3,34.7l1.7-1.8c0.9-1,0.9-2,0.1-2.7s-1.8-0.7-2.7,0.3l-1.7,1.8L27.3,34.7z"/>
				<path class="st0" d="M37.6,24.5l0.6-7.3l2.6-1.9L40,23.5l8.5,2.2l-2.7,2l-7.3-2l3.4,4.8l-2.2,1.6l-7.6-10.5l2.2-1.6L37.6,24.5z"
					/>
				<path class="st0" d="M43.3,13.9l10-4.7l1,2.1l-3.8,1.8l4.5,9.6l-2.5,1.2L48,14.2L44.2,16L43.3,13.9z"/>
				<path class="st0" d="M63.7,19.6l-2.6,0.8L57.3,8l2.6-0.8L63.7,19.6z"/>
				<path class="st0" d="M66.7,15c1.3,0.7,2.8,1,4.3,0.8c1.3-0.2,2.2-0.7,2.1-1.7c-0.1-0.8-0.7-1.1-1.7-1.3l-2-0.4
					c-2-0.4-3.4-1.2-3.7-3.3c-0.3-2.4,1.5-4,4-4.3c1.6-0.2,2.9,0,4,0.4l0.4,2.6c-1.2-0.7-2.5-1-4-0.8c-1.2,0.2-2,0.7-1.8,1.6
					c0.1,0.8,0.7,1,1.6,1.2l2.1,0.4c2.3,0.4,3.4,1.4,3.7,3.4c0.4,2.5-1.6,4.1-4.3,4.5c-1.7,0.2-3.3,0-4.3-0.5L66.7,15z"/>
				<path class="st0" d="M82.2,9.8l5-5.3l3.3,0.2l-5.7,5.9l5.2,7l-3.3-0.2l-4.6-6.1l-0.3,5.9l-2.7-0.1l0.7-13l2.7,0.1L82.2,9.8z"/>
				<path class="st0" d="M104.1,7.7l-0.6,2.3l-6-1.5l-0.7,2.7l5.4,1.4l-0.6,2.2l-5.4-1.4l-0.8,3l6,1.5l-0.6,2.3L92.2,18l3.2-12.6
					L104.1,7.7z"/>
				<path class="st0" d="M112.1,19.3l4.1-6.6l2.3,1.4l-3.9,6.4c-1.2,1.9-0.9,3.3,0.6,4.2s2.8,0.5,4-1.4l3.9-6.4l2.3,1.4l-4.1,6.6
					c-1.9,3-4.7,3.5-7.4,1.8C111.1,25.1,110.2,22.3,112.1,19.3z"/>
				<path class="st0" d="M128.9,38.8l-1.5-1.5l1.6-10.5l-6,6.2l-1.9-1.8l9-9.3l1.8,1.8l-1.6,9.9l5.7-5.9l1.9,1.8L128.9,38.8z"/>
				<path class="st0" d="M132.7,44.1l-1.6-2.2l10.4-7.7l1.6,2.2L132.7,44.1z"/>
				<path class="st0" d="M136.6,50.2l9.3-10.3l1.3,2.5l-6.8,7.3l9.9-1.4l1.3,2.5l-13.8,1.7L136.6,50.2z"/>
				<path class="st0" d="M155.6,63.8l-2.3,0.7l-1.7-5.9l-2.7,0.8l1.6,5.4l-2.2,0.6l-1.6-5.4l-3,0.9l1.7,5.9l-2.3,0.7l-2.5-8.5
					l12.5-3.6L155.6,63.8z"/>
				<path class="st0" d="M148.8,73.4l-4.8,0.4l-0.2-2.7l12.9-1l0.4,5.3c0.2,2.7-1.1,4.6-3.8,4.8c-2.1,0.2-3.5-0.9-4-2.7l-4.8,3.8
					l-0.2-3l4.6-3.6L148.8,73.4z M151.1,73.2l0.2,2.5c0.1,1.3,0.9,2,2,1.9s1.8-0.8,1.7-2.2l-0.2-2.5L151.1,73.2z"/>
				<path class="st0" d="M147.9,84.8c-1,1-1.8,2.4-1.9,3.9c-0.2,1.3,0.1,2.3,1.1,2.5c0.8,0.1,1.2-0.4,1.7-1.3l0.9-1.8
					c0.9-1.8,2-3,4.2-2.7c2.4,0.3,3.4,2.5,3.1,5c-0.2,1.6-0.7,2.8-1.5,3.8l-2.6-0.3c1-1,1.6-2.2,1.8-3.6c0.1-1.2-0.1-2.1-1-2.2
					c-0.8-0.1-1.2,0.4-1.6,1.2l-0.9,1.9c-1,2.1-2.3,2.9-4.2,2.7c-2.5-0.3-3.5-2.6-3.2-5.4c0.2-1.7,0.9-3.2,1.6-4L147.9,84.8z"/>
				<path class="st0" d="M141.7,99.2l0.7-2.6l12.5,3.5l-0.7,2.6L141.7,99.2z"/>
				<path class="st0" d="M152.9,107.2l-4.6,10.1l-2.2-1l1.7-3.8l-9.7-4.4l1.1-2.5l9.7,4.4l1.7-3.8L152.9,107.2z"/>
				<path class="st0" d="M140.7,128.6l-1.9-1.4l3.5-5l-2.3-1.6l-3.2,4.6l-1.9-1.3l3.2-4.6l-2.5-1.8l-3.5,5l-1.9-1.4l5.1-7.2
					l10.6,7.5L140.7,128.6z"/>
				<path class="st0" d="M137.5,132.5l-8,7.6l-1.6-1.7l3-2.9l-7.3-7.7l2-1.9l7.3,7.7l3-2.9L137.5,132.5z"/>
			</g>
			<path class="st0" d="M60.5,98.2l13-8L62,83.1H33.6c0.1,1.6,0.2,3.4,0.5,4.9h12.3c0.1,1.2,0.4,2.7,0.4,2.7H34.5
				c0.3,1.3,0.5,2.4,0.9,3.6H54L60.5,98.2z"/>
		</g>
	</g>
</g>
<g id="Layer_2_1_" class="st1">
	<rect x="-61" y="46.5" class="st2" width="1440.2" height="81.2"/>
	<line class="st3" x1="-61" y1="50.2" x2="1379.2" y2="50.2"/>
	<line class="st3" x1="-61" y1="108" x2="1379.2" y2="108"/>
	<line class="st4" x1="-61" y1="46.5" x2="1379.2" y2="46.5"/>
	<line class="st4" x1="-66.8" y1="157.5" x2="219.9" y2="157.5"/>
	<line class="st4" x1="-66.8" y1="115.8" x2="219.9" y2="115.8"/>
	<line class="st4" x1="-66.8" y1="199.2" x2="219.9" y2="199.2"/>
	<line class="st5" x1="-61" y1="50.2" x2="1379.2" y2="50.2"/>
	<line class="st5" x1="-61" y1="108.1" x2="1379.2" y2="108.1"/>
	<line class="st4" x1="-61" y1="127.6" x2="1379.2" y2="127.6"/>
	<rect x="-59.2" y="115.8" class="st2" width="271.4" height="41.7"/>
	<rect x="-59.2" y="157.5" class="st2" width="271.4" height="41.7"/>
	<rect x="157.3" y="-50.4" class="st2" width="41.7" height="271.4"/>
	<path class="st6" d="M199-50.4c0,0,0.6,65.7,0.6,131.4s-53.3,119-119,119s-139.7-0.9-139.7-0.9"/>
</g>
</svg>
